<svg width="43" height="43" viewBox="0 0 43 43" fill="none" xmlns="http://www.w3.org/2000/svg">
<path d="M42.2833 10.0333H41.5667V0.716667C41.5667 0.3225 41.2442 0 40.85 0H2.15C1.75583 0 1.43333 0.3225 1.43333 0.716667V10.0333H0.716667C0.3225 10.0333 0 10.3558 0 10.75V42.2833C0 42.6775 0.3225 43 0.716667 43H42.2833C42.6775 43 43 42.6775 43 42.2833V10.75C43 10.3558 42.6775 10.0333 42.2833 10.0333ZM2.86667 1.43333H40.1333V10.0333H2.86667V1.43333ZM41.5667 41.5667H1.43333V40.1333H41.5667V41.5667ZM5.73333 38.7V30.1H14.3333V38.7H5.73333ZM15.7667 38.7V30.1H27.2333V38.7H15.7667ZM28.6667 38.7V30.1H37.2667V38.7H28.6667ZM41.5667 38.7H38.7V29.3833C38.7 28.9892 38.3775 28.6667 37.9833 28.6667H5.01667C4.6225 28.6667 4.3 28.9892 4.3 29.3833V38.7H1.43333V11.4667H41.5667V38.7Z" fill="#003366"/>
<path d="M33.6833 25.8H37.9833C38.3797 25.8 38.7 25.4789 38.7 25.0833V20.7833C38.7 20.3877 38.3797 20.0667 37.9833 20.0667H33.6833C33.287 20.0667 32.9667 20.3877 32.9667 20.7833V25.0833C32.9667 25.4789 33.287 25.8 33.6833 25.8ZM34.4 21.5H37.2667V24.3667H34.4V21.5Z" fill="#003366"/>
<path d="M33.6833 18.6332H37.9833C38.3797 18.6332 38.7 18.3122 38.7 17.9166V13.6166C38.7 13.221 38.3797 12.8999 37.9833 12.8999H33.6833C33.287 12.8999 32.9667 13.221 32.9667 13.6166V17.9166C32.9667 18.3122 33.287 18.6332 33.6833 18.6332ZM34.4 14.3332H37.2667V17.1999H34.4V14.3332Z" fill="#003366"/>
<path d="M5.01672 25.8H9.31672C9.71303 25.8 10.0334 25.4789 10.0334 25.0833V20.7833C10.0334 20.3877 9.71303 20.0667 9.31672 20.0667H5.01672C4.6204 20.0667 4.30005 20.3877 4.30005 20.7833V25.0833C4.30005 25.4789 4.6204 25.8 5.01672 25.8ZM5.73338 21.5H8.60005V24.3667H5.73338V21.5Z" fill="#003366"/>
<path d="M5.01672 18.6332H9.31672C9.71303 18.6332 10.0334 18.3122 10.0334 17.9166V13.6166C10.0334 13.221 9.71303 12.8999 9.31672 12.8999H5.01672C4.6204 12.8999 4.30005 13.221 4.30005 13.6166V17.9166C4.30005 18.3122 4.6204 18.6332 5.01672 18.6332ZM5.73338 14.3332H8.60005V17.1999H5.73338V14.3332Z" fill="#003366"/>
<path d="M12.1833 18.6332H16.4833C16.8797 18.6332 17.2 18.3122 17.2 17.9166V13.6166C17.2 13.221 16.8797 12.8999 16.4833 12.8999H12.1833C11.787 12.8999 11.4667 13.221 11.4667 13.6166V17.9166C11.4667 18.3122 11.787 18.6332 12.1833 18.6332ZM12.9 14.3332H15.7667V17.1999H12.9V14.3332Z" fill="#003366"/>
<path d="M19.35 18.6332H23.65C24.0463 18.6332 24.3666 18.3122 24.3666 17.9166V13.6166C24.3666 13.221 24.0463 12.8999 23.65 12.8999H19.35C18.9537 12.8999 18.6333 13.221 18.6333 13.6166V17.9166C18.6333 18.3122 18.9537 18.6332 19.35 18.6332ZM20.0666 14.3332H22.9333V17.1999H20.0666V14.3332Z" fill="#003366"/>
<path d="M26.5167 18.6332H30.8167C31.213 18.6332 31.5334 18.3122 31.5334 17.9166V13.6166C31.5334 13.221 31.213 12.8999 30.8167 12.8999H26.5167C26.1204 12.8999 25.8 13.221 25.8 13.6166V17.9166C25.8 18.3122 26.1204 18.6332 26.5167 18.6332ZM27.2334 14.3332H30.1V17.1999H27.2334V14.3332Z" fill="#003366"/>
<path d="M37.9833 2.8667H33.6833C33.287 2.8667 32.9667 3.18777 32.9667 3.58337V7.88337C32.9667 8.27897 33.287 8.60003 33.6833 8.60003H37.9833C38.3797 8.60003 38.7 8.27897 38.7 7.88337V3.58337C38.7 3.18777 38.3797 2.8667 37.9833 2.8667ZM37.2667 7.1667H34.4V4.30003H37.2667V7.1667Z" fill="#003366"/>
<path d="M9.31672 2.8667H5.01672C4.6204 2.8667 4.30005 3.18777 4.30005 3.58337V7.88337C4.30005 8.27897 4.6204 8.60003 5.01672 8.60003H9.31672C9.71303 8.60003 10.0334 8.27897 10.0334 7.88337V3.58337C10.0334 3.18777 9.71303 2.8667 9.31672 2.8667ZM8.60005 7.1667H5.73338V4.30003H8.60005V7.1667Z" fill="#003366"/>
<path d="M16.4833 2.8667H12.1833C11.787 2.8667 11.4667 3.18777 11.4667 3.58337V7.88337C11.4667 8.27897 11.787 8.60003 12.1833 8.60003H16.4833C16.8797 8.60003 17.2 8.27897 17.2 7.88337V3.58337C17.2 3.18777 16.8797 2.8667 16.4833 2.8667ZM15.7667 7.1667H12.9V4.30003H15.7667V7.1667Z" fill="#003366"/>
<path d="M23.65 2.8667H19.35C18.9537 2.8667 18.6333 3.18777 18.6333 3.58337V7.88337C18.6333 8.27897 18.9537 8.60003 19.35 8.60003H23.65C24.0463 8.60003 24.3666 8.27897 24.3666 7.88337V3.58337C24.3666 3.18777 24.0463 2.8667 23.65 2.8667ZM22.9333 7.1667H20.0666V4.30003H22.9333V7.1667Z" fill="#003366"/>
<path d="M30.8167 2.8667H26.5167C26.1204 2.8667 25.8 3.18777 25.8 3.58337V7.88337C25.8 8.27897 26.1204 8.60003 26.5167 8.60003H30.8167C31.213 8.60003 31.5334 8.27897 31.5334 7.88337V3.58337C31.5334 3.18777 31.213 2.8667 30.8167 2.8667ZM30.1 7.1667H27.2334V4.30003H30.1V7.1667Z" fill="#003366"/>
<path d="M12.1833 25.8H16.4833C16.8797 25.8 17.2 25.4789 17.2 25.0833V20.7833C17.2 20.3877 16.8797 20.0667 16.4833 20.0667H12.1833C11.787 20.0667 11.4667 20.3877 11.4667 20.7833V25.0833C11.4667 25.4789 11.787 25.8 12.1833 25.8ZM12.9 21.5H15.7667V24.3667H12.9V21.5Z" fill="#003366"/>
<path d="M19.35 25.8H23.65C24.0463 25.8 24.3666 25.4789 24.3666 25.0833V20.7833C24.3666 20.3877 24.0463 20.0667 23.65 20.0667H19.35C18.9537 20.0667 18.6333 20.3877 18.6333 20.7833V25.0833C18.6333 25.4789 18.9537 25.8 19.35 25.8ZM20.0666 21.5H22.9333V24.3667H20.0666V21.5Z" fill="#003366"/>
<path d="M26.5167 25.8H30.8167C31.213 25.8 31.5334 25.4789 31.5334 25.0833V20.7833C31.5334 20.3877 31.213 20.0667 30.8167 20.0667H26.5167C26.1204 20.0667 25.8 20.3877 25.8 20.7833V25.0833C25.8 25.4789 26.1204 25.8 26.5167 25.8ZM27.2334 21.5H30.1V24.3667H27.2334V21.5Z" fill="#003366"/>
</svg>
