<svg width="52" height="42" viewBox="0 0 52 42" fill="none" xmlns="http://www.w3.org/2000/svg">
<path d="M50.4581 35.9117C50.7878 35.9117 51.0612 35.6383 51.0612 35.3086V12.6487C51.0612 11.1691 49.855 9.97101 48.3835 9.97101C46.912 9.97101 45.7058 11.1772 45.7058 12.6487V15.7365H42.7306V13.8388C42.7306 13.5091 42.4572 13.2357 42.1275 13.2357H38.7985C38.4688 13.2357 38.1954 13.5091 38.1954 13.8388V14.6992H30.6206V13.8388C30.6206 13.5091 30.3472 13.2357 30.0176 13.2357H26.6966C26.3669 13.2357 26.0935 13.5091 26.0935 13.8388V15.7365H17.1759C16.8703 12.906 14.474 10.6947 11.5632 10.6947H5.60467V2.6777C5.60467 1.19813 4.3985 0 2.92697 0H2.68574C1.20617 0 0.00804113 1.20617 0.00804113 2.6777V5.61271C0.00804113 5.9424 0.28144 6.2158 0.611126 6.2158C0.940813 6.2158 1.21421 5.9424 1.21421 5.61271V2.6777C1.21421 1.86554 1.87358 1.20617 2.68574 1.20617H2.92697C3.73913 1.20617 4.3985 1.86554 4.3985 2.6777V39.8358H1.20617V7.88031C1.20617 7.55063 0.932772 7.27723 0.603085 7.27723C0.273399 7.27723 0 7.55063 0 7.88031V40.4469C0 40.7766 0.273399 41.05 0.603085 41.05H5.00159C5.33127 41.05 5.60467 40.7766 5.60467 40.4469V35.9198H19.9661C20.2958 35.9198 20.5692 35.6464 20.5692 35.3167C20.5692 34.987 20.2958 34.7136 19.9661 34.7136H5.60467V31.7625H26.0935V34.7136H22.7243C22.3946 34.7136 22.1212 34.987 22.1212 35.3167C22.1212 35.6464 22.3946 35.9198 22.7243 35.9198H26.0935V40.4469C26.0935 40.7766 26.3669 41.05 26.6966 41.05H30.0176C30.3472 41.05 30.6206 40.7766 30.6206 40.4469V37.9702H38.1954V40.4389C38.1954 40.7686 38.4688 41.042 38.7985 41.042H42.1195C42.4492 41.042 42.7226 40.7686 42.7226 40.4389V35.9117H45.6978V40.4389C45.6978 40.7686 45.9712 41.042 46.3009 41.042H50.4581C50.7878 41.042 51.0612 40.7686 51.0612 40.4389V37.6968C51.0612 37.3672 50.7878 37.0938 50.4581 37.0938C50.1284 37.0938 49.855 37.3672 49.855 37.6968V39.8358H46.9039V35.3086V31.1514V20.4969V16.3396V12.6487C46.9039 11.8366 47.5633 11.1772 48.3755 11.1772C49.1876 11.1772 49.847 11.8366 49.847 12.6487V35.3086C49.855 35.6383 50.1284 35.9117 50.4581 35.9117ZM42.7226 21.0999H45.6978V30.5483H42.7226V21.0999ZM45.6978 16.9427V19.8938H42.7226V16.9427H45.6978ZM38.1954 23.9465H30.6206V22.3222H38.1954V23.9465ZM30.6206 25.1527H38.1954V27.5248H30.6206V25.1527ZM30.6206 28.731H38.1954V30.3553H30.6206V28.731ZM38.1954 21.116H30.6206V18.7439H38.1954V21.116ZM30.6206 31.5615H38.1954V33.9336H30.6206V31.5615ZM38.1954 15.9134V17.5377H30.6206V15.9134H38.1954ZM26.0935 19.8938H5.60467V16.9427H16.613H26.0935V19.8938ZM5.60467 30.5081V26.6725H11.5712C13.8147 26.6725 15.6722 28.345 15.9697 30.5081H5.60467ZM11.5712 11.9089C13.8147 11.9089 15.6722 13.5815 15.9697 15.7445H5.60467V11.9089H11.5712ZM17.1839 30.5483C16.9025 27.7017 14.4901 25.4663 11.5712 25.4663H5.60467V21.0999H26.0935V30.5483H17.1839ZM29.4145 39.8358H27.2997V35.3086V31.1514V20.4969V16.3396V14.4419H29.4145V39.8358ZM30.6206 36.7641V35.1398H38.1954V36.7641H30.6206ZM41.5164 39.8358H39.4016V14.4419H41.5164V39.8358ZM42.7226 34.7055V31.7544H45.6978V34.7055H42.7226Z" fill="#003366"/>
</svg>
