<svg width="43" height="56" viewBox="0 0 43 56" fill="none" xmlns="http://www.w3.org/2000/svg">
<path d="M9.30665 16.7343H6.64624C6.40393 16.7343 6.20747 16.9299 6.20747 17.1712V51.0802C6.20747 51.3214 6.40393 51.517 6.64624 51.517H9.30665C9.54896 51.517 9.74542 51.3214 9.74542 51.0802V17.1712C9.74542 16.9299 9.54896 16.7343 9.30665 16.7343ZM8.86787 17.608V19.817H7.08502V17.608H8.86787ZM7.08502 44.4781V42.2691H8.86787V44.4781H7.08502ZM8.86787 45.3518V47.5608H7.08502V45.3518H8.86787ZM7.08502 41.3954V39.1864H8.86787V41.3954H7.08502ZM7.08502 38.3128V36.1037H8.86787V38.3128H7.08502ZM7.08502 35.2302V33.0212H8.86787V35.2302H7.08502ZM7.08502 32.1475V29.9385H8.86787V32.1475H7.08502ZM7.08502 29.0648V26.8558H8.86787V29.0648H7.08502ZM7.08502 25.9822V23.7731H8.86787V25.9822H7.08502ZM7.08502 22.8996V20.6906H8.86787V22.8996H7.08502ZM7.08502 50.6434V48.4343H8.86787V50.6434H7.08502ZM0.438776 55.04H42.5612C42.8035 55.04 43 54.8444 43 54.6032V0.436825C43 0.195589 42.8035 0 42.5612 0H30.1462C29.9039 0 29.7074 0.195589 29.7074 0.436825V6.16524H9.30665C9.06433 6.16524 8.86787 6.36083 8.86787 6.60207V11.4498H1.76892C1.52661 11.4498 1.33015 11.6454 1.33015 11.8867V13.6518H0.438776C0.196462 13.6518 0 13.8474 0 14.0886V54.6032C0 54.8444 0.196462 55.04 0.438776 55.04ZM15.0661 43.5901H29.7074V44.9184H15.0661V43.5901ZM21.948 45.7921V48.0011H18.9459V45.7921H21.948ZM29.7074 51.0837H26.7052V48.8746H29.7074V51.0837ZM25.8278 51.0837H22.8255V48.8746H25.8278V51.0837ZM29.7074 48.0011H26.7052V45.7921H29.7074V48.0011ZM25.8278 48.0011H22.8255V45.7921H25.8278V48.0011ZM21.948 48.8748V51.0838H18.9459V48.8748H21.948ZM21.948 51.9573V54.1663H18.9459V51.9573H21.948ZM22.8255 51.9573H25.8278V54.1663H22.8255V51.9573ZM26.7053 51.9573H29.7075V54.1663H26.7053V51.9573ZM15.0661 45.7921H18.0683V48.0011H15.0661V45.7921ZM15.0661 48.8748H18.0683V51.0838H15.0661V48.8748ZM15.0661 51.9573H18.0683V54.1663H15.0661V51.9573ZM30.585 0.873651H42.1224V54.1663H30.585V45.3553V0.873651ZM9.74542 7.0389H29.7074V42.7165H15.0661V14.0885C15.0661 13.8473 14.8697 13.6517 14.6273 13.6517H13.736V11.8866C13.736 11.6453 13.5395 11.4497 13.2972 11.4497H9.74542V7.0389ZM2.2077 12.3235H12.8584V13.6518H2.2077V12.3235ZM0.877551 14.5253H14.1886V54.1663H0.877551V14.5253ZM35.4669 50.1958H38.1273C38.3696 50.1958 38.5661 50.0002 38.5661 49.759V3.5195C38.5661 3.27827 38.3696 3.08268 38.1273 3.08268H35.4669C35.2246 3.08268 35.0281 3.27827 35.0281 3.5195V49.7591C35.0281 50.0002 35.2246 50.1958 35.4669 50.1958ZM35.9057 49.3222V47.1131H37.6885V49.3222H35.9057ZM37.6885 10.1216V12.3306H35.9057V10.1216H37.6885ZM35.9057 9.24792V7.0389H37.6885V9.24792H35.9057ZM37.6885 13.2042V15.4133H35.9057V13.2042H37.6885ZM37.6885 16.2868V18.4958H35.9057V16.2868H37.6885ZM37.6885 19.3695V21.5785H35.9057V19.3695H37.6885ZM37.6885 22.4521V24.6611H35.9057V22.4521H37.6885ZM37.6885 25.5347V27.7438H35.9057V25.5347H37.6885ZM37.6885 28.6174V30.8264H35.9057V28.6174H37.6885ZM37.6885 31.7V33.909H35.9057V31.7H37.6885ZM37.6885 34.7827V36.9917H35.9057V34.7827H37.6885ZM37.6885 37.8653V40.0744H35.9057V37.8653H37.6885ZM37.6885 40.9479V43.1569H35.9057V40.9479H37.6885ZM37.6885 44.0306V46.2396H35.9057V44.0306H37.6885ZM37.6885 3.95633V6.16535H35.9057V3.95633H37.6885ZM17.2878 12.7638H26.1556C26.3979 12.7638 26.5944 12.5682 26.5944 12.327V9.68475C26.5944 9.44351 26.3979 9.24792 26.1556 9.24792H17.2878C17.0454 9.24792 16.849 9.44351 16.849 9.68475V12.327C16.849 12.5682 17.0454 12.7638 17.2878 12.7638ZM25.7169 11.8902H22.1605V10.1216H25.7169V11.8902ZM17.7265 10.1216H21.2829V11.8902H17.7265V10.1216ZM17.2878 18.4887H26.1556C26.3979 18.4887 26.5944 18.2932 26.5944 18.0519V15.4097C26.5944 15.1684 26.3979 14.9728 26.1556 14.9728H17.2878C17.0454 14.9728 16.849 15.1684 16.849 15.4097V18.0519C16.849 18.2932 17.0454 18.4887 17.2878 18.4887ZM25.7169 17.6151H22.1605V15.8465H25.7169V17.6151ZM17.7265 15.8464H21.2829V17.615H17.7265V15.8464ZM17.2878 24.2137H26.1556C26.3979 24.2137 26.5944 24.0181 26.5944 23.7768V21.1346C26.5944 20.8934 26.3979 20.6978 26.1556 20.6978H17.2878C17.0454 20.6978 16.849 20.8934 16.849 21.1346V23.7768C16.849 24.0181 17.0454 24.2137 17.2878 24.2137ZM25.7169 23.34H22.1605V21.5714H25.7169V23.34ZM17.7265 21.5713H21.2829V23.3399H17.7265V21.5713ZM17.2878 29.9385H26.1556C26.3979 29.9385 26.5944 29.7429 26.5944 29.5017V26.8594C26.5944 26.6182 26.3979 26.4226 26.1556 26.4226H17.2878C17.0454 26.4226 16.849 26.6182 16.849 26.8594V29.5017C16.849 29.7429 17.0454 29.9385 17.2878 29.9385ZM25.7169 29.0648H22.1605V27.2962H25.7169V29.0648ZM17.7265 27.2962H21.2829V29.0648H17.7265V27.2962ZM17.2878 35.6634H26.1556C26.3979 35.6634 26.5944 35.4678 26.5944 35.2266V32.5843C26.5944 32.3431 26.3979 32.1475 26.1556 32.1475H17.2878C17.0454 32.1475 16.849 32.3431 16.849 32.5843V35.2266C16.849 35.4678 17.0454 35.6634 17.2878 35.6634ZM25.7169 34.7898H22.1605V33.0212H25.7169V34.7898ZM17.7265 33.0212H21.2829V34.7898H17.7265V33.0212ZM17.2878 41.3883H26.1556C26.3979 41.3883 26.5944 41.1927 26.5944 40.9515V38.3093C26.5944 38.068 26.3979 37.8724 26.1556 37.8724H17.2878C17.0454 37.8724 16.849 38.068 16.849 38.3093V40.9515C16.849 41.1927 17.0454 41.3883 17.2878 41.3883ZM25.7169 40.5147H22.1605V38.7461H25.7169V40.5147ZM17.7265 38.7461H21.2829V40.5147H17.7265V38.7461Z" fill="#003366"/>
</svg>
