<svg width="58" height="38" viewBox="0 0 58 38" fill="none" xmlns="http://www.w3.org/2000/svg">
<path d="M57.6942 15.2504L40.7968 0.230278C40.6301 0.0821196 40.415 0.000260538 40.192 0.00022845H17.8517C17.8456 0.00022845 17.8391 0.00022845 17.8329 0.00022845C17.6034 -0.00492313 17.3805 0.0772153 17.2092 0.230052L0.311923 15.2504C0.2213 15.3294 0.147236 15.4256 0.0940124 15.5334C0.0407883 15.6413 0.00945827 15.7586 0.00183226 15.8786C-0.00579376 15.9986 0.0104354 16.1189 0.0495822 16.2326C0.088729 16.3463 0.150017 16.4512 0.229907 16.541C0.309796 16.6309 0.406703 16.7041 0.515029 16.7563C0.623355 16.8085 0.740952 16.8387 0.861028 16.8452C0.981104 16.8517 1.10128 16.8344 1.21461 16.7942C1.32794 16.7539 1.43217 16.6917 1.5213 16.6109L17.814 2.12845L34.1071 16.6109C34.2736 16.7592 34.4888 16.841 34.7117 16.841H57.0896C57.2742 16.841 57.4545 16.7849 57.6065 16.6801C57.7585 16.5753 57.875 16.4268 57.9406 16.2542C58.0062 16.0817 58.0178 15.8933 57.9738 15.714C57.9298 15.5347 57.8324 15.373 57.6944 15.2504H57.6942ZM35.0577 15.0197L20.2081 1.82092H39.846L54.6954 15.0197H35.0577Z" fill="#003366"/>
<path d="M53.8091 17.7514C53.5676 17.7514 53.3361 17.8473 53.1654 18.018C52.9946 18.1887 52.8987 18.4203 52.8987 18.6617V35.958H31.0512V17.7514C31.0511 17.6229 31.0238 17.496 30.9711 17.3788C30.9184 17.2617 30.8415 17.157 30.7454 17.0718L18.4565 6.14752C18.2899 5.99934 18.0747 5.91748 17.8518 5.91748C17.6288 5.91748 17.4137 5.99934 17.2471 6.14752L4.95793 17.0712C4.86184 17.1565 4.78491 17.2611 4.73219 17.3782C4.67948 17.4954 4.65218 17.6224 4.6521 17.7508V36.8673C4.6521 37.1087 4.74801 37.3403 4.91873 37.511C5.08946 37.6817 5.32101 37.7776 5.56245 37.7776H53.8091C53.9286 37.7776 54.047 37.7541 54.1574 37.7083C54.2679 37.6626 54.3682 37.5955 54.4527 37.511C54.5373 37.4265 54.6043 37.3261 54.65 37.2157C54.6958 37.1052 54.7193 36.9868 54.7193 36.8673V18.6617C54.7193 18.4203 54.6234 18.1888 54.4527 18.0181C54.282 17.8473 54.0505 17.7514 53.8091 17.7514ZM6.4729 18.1602L17.8517 8.04523L29.2306 18.1602V35.9576H22.4033V25.9446C22.4033 25.7032 22.3074 25.4717 22.1367 25.301C21.9659 25.1303 21.7344 25.0344 21.493 25.0344H14.2101C13.9687 25.0344 13.7372 25.1303 13.5664 25.301C13.3957 25.4717 13.2998 25.7032 13.2998 25.9446V35.9576H6.4729V18.1602ZM15.1208 35.9576V26.8545H20.5826V35.9576H15.1208Z" fill="#003366"/>
<path d="M40.1544 27.7647C40.3958 27.7647 40.6274 27.6688 40.7981 27.498C40.9688 27.3273 41.0647 27.0958 41.0647 26.8544V21.3925C41.0647 21.1511 40.9688 20.9196 40.7981 20.7489C40.6274 20.5781 40.3958 20.4822 40.1544 20.4822H34.6926C34.4511 20.4822 34.2196 20.5781 34.0489 20.7488C33.8782 20.9196 33.7823 21.1511 33.7822 21.3925V26.8544C33.7823 27.0958 33.8782 27.3273 34.0489 27.498C34.2196 27.6688 34.4511 27.7647 34.6926 27.7647H40.1544ZM35.6028 22.303H39.2441V25.9441H35.6028V22.303Z" fill="#003366"/>
<path d="M49.2573 27.7647C49.4987 27.7647 49.7302 27.6688 49.901 27.4981C50.0717 27.3274 50.1676 27.0958 50.1676 26.8544V21.3925C50.1676 21.1511 50.0717 20.9195 49.901 20.7488C49.7302 20.5781 49.4987 20.4822 49.2573 20.4822H43.796C43.5546 20.4822 43.323 20.5781 43.1523 20.7489C42.9816 20.9196 42.8857 21.1511 42.8857 21.3925V26.8544C42.8857 27.0958 42.9816 27.3273 43.1523 27.498C43.323 27.6688 43.5546 27.7647 43.796 27.7647H49.2573ZM44.7058 22.303H48.347V25.9441H44.7058V22.303Z" fill="#003366"/>
</svg>
