<svg width="55" height="44" viewBox="0 0 55 44" fill="none" xmlns="http://www.w3.org/2000/svg">
<path d="M53.8462 41.4709H50.1689V12.0306H53.8462C54.3278 12.0306 54.7218 11.6366 54.7218 11.155C54.7218 10.6735 54.3278 10.2795 53.8462 10.2795H50.1689V9.32733C50.1689 9.07561 50.0595 8.83483 49.8734 8.67067L40.5269 0.232568C40.1986 -0.0629294 39.6952 -0.0629294 39.3559 0.232568L37.4297 1.96177H32.0998C31.6182 1.96177 31.2242 2.35577 31.2242 2.83732V7.55434L29.9985 8.65972C29.8124 8.82389 29.703 9.06466 29.703 9.31638V10.2685H24.986V9.31638C24.986 9.06466 24.8765 8.82389 24.6905 8.65972L15.344 0.221623C15.0157 -0.0738744 14.5122 -0.0738744 14.1729 0.221623L12.2467 1.95083H6.93872C6.45717 1.95083 6.06317 2.34483 6.06317 2.82638V7.5434L4.8374 8.64878C4.65135 8.81294 4.54191 9.05372 4.54191 9.30544V10.2576H0.875548C0.393997 10.2576 0 10.6516 0 11.1331C0 11.6147 0.393997 12.0087 0.875548 12.0087H4.55285V41.449H0.875548C0.393997 41.449 0 41.843 0 42.3246C0 42.8061 0.393997 43.2001 0.875548 43.2001H53.8462C54.3278 43.2001 54.7218 42.8061 54.7218 42.3246C54.7218 41.8649 54.3278 41.4709 53.8462 41.4709ZM7.81427 3.71287H10.3205L7.81427 5.97835V3.71287ZM17.2045 41.4709H12.3452V33.6676H17.2045V41.4709ZM23.2568 41.4709H18.9556V32.792C18.9556 32.3105 18.5616 31.9165 18.0801 31.9165H11.4806C10.9991 31.9165 10.6051 32.3105 10.6051 32.792V41.4709H6.30395V9.71038L14.7749 2.06028L23.2458 9.71038V41.4709H23.2568ZM29.7249 41.4709H25.0079V12.0306H29.7249V41.4709ZM32.9863 3.71287H35.4925L32.9863 5.97835V3.71287ZM42.3656 41.4709H37.5063V33.6676H42.3656V41.4709ZM48.4178 41.4709H44.1167V32.792C44.1167 32.3105 43.7227 31.9165 43.2411 31.9165H36.6417C36.1601 31.9165 35.7661 32.3105 35.7661 32.792V41.4709H31.465V9.71038L39.9469 2.06028L48.4178 9.71038V41.4709Z" fill="#003366"/>
<path d="M18.08 20.7422H11.4805C10.999 20.7422 10.605 21.1362 10.605 21.6177V28.0311C10.605 28.5127 10.999 28.9067 11.4805 28.9067H18.08C18.5615 28.9067 18.9555 28.5127 18.9555 28.0311V21.6177C18.9555 21.1362 18.5615 20.7422 18.08 20.7422ZM17.2044 27.1446H12.3451V22.4933H17.2044V27.1446Z" fill="#003366"/>
<path d="M43.2411 20.7422H36.6417C36.1601 20.7422 35.7661 21.1362 35.7661 21.6177V28.0311C35.7661 28.5127 36.1601 28.9067 36.6417 28.9067H43.2411C43.7227 28.9067 44.1167 28.5127 44.1167 28.0311V21.6177C44.1167 21.1362 43.7227 20.7422 43.2411 20.7422ZM42.3656 27.1446H37.5063V22.4933H42.3656V27.1446Z" fill="#003366"/>
<path d="M10.605 11.1551V17.5685C10.605 18.05 10.999 18.444 11.4805 18.444H18.08C18.5615 18.444 18.9555 18.05 18.9555 17.5685V11.1551C18.9555 10.6735 18.5615 10.2795 18.08 10.2795H11.4805C10.999 10.2686 10.605 10.6626 10.605 11.1551ZM12.3561 12.0306H17.2154V16.682H12.3561V12.0306Z" fill="#003366"/>
<path d="M35.7661 11.1551V17.5685C35.7661 18.05 36.1601 18.444 36.6417 18.444H43.2411C43.7227 18.444 44.1167 18.05 44.1167 17.5685V11.1551C44.1167 10.6735 43.7227 10.2795 43.2411 10.2795H36.6417C36.1601 10.2686 35.7661 10.6626 35.7661 11.1551ZM37.5172 12.0306H42.3765V16.682H37.5172V12.0306Z" fill="#003366"/>
</svg>
