<svg width="48" height="45" viewBox="0 0 48 45" fill="none" xmlns="http://www.w3.org/2000/svg">
<path d="M46.7005 40.0051C45.1695 39.9759 43.6751 40.474 42.4678 41.416C41.6798 42.0851 40.6797 42.4524 39.646 42.4524C38.6123 42.4524 37.6122 42.0851 36.8242 41.416C36.5702 41.2467 36.3163 41.0633 36.02 40.8799L37.4309 34.559L44.9228 36.2662C45.0163 36.2799 45.1114 36.2799 45.205 36.2662C45.4879 36.2665 45.7624 36.1701 45.983 35.993C46.2037 35.816 46.3573 35.5689 46.4183 35.2927C46.9789 32.8705 46.6305 30.3269 45.4393 28.1446C44.248 25.9624 42.2969 24.2937 39.9564 23.4552V23.2436C40.0312 22.9217 39.9752 22.5834 39.8005 22.3029C39.6259 22.0224 39.347 21.8228 39.0252 21.748C38.7034 21.6732 38.365 21.7292 38.0846 21.9039C37.8041 22.0785 37.6045 22.3574 37.5296 22.6792V22.8767C35.0577 22.6304 32.5806 23.292 30.5607 24.7381C28.5408 26.1843 27.1162 28.316 26.5528 30.7355C26.4849 31.0587 26.5456 31.3957 26.7221 31.675C26.8986 31.9542 27.177 32.1537 27.4981 32.231L35.0041 33.9523L33.5932 39.991C33.2388 39.9326 32.8801 39.9043 32.5209 39.9063C30.9899 39.8771 29.4955 40.3753 28.2882 41.3173C27.5015 41.989 26.5009 42.3581 25.4664 42.3581C24.4319 42.3581 23.4313 41.989 22.6446 41.3173C21.4362 40.3773 19.9425 39.8794 18.4119 39.9063C17.4706 39.8913 16.537 40.0789 15.6747 40.4566C15.4631 37.0422 15.844 32.6966 18.4965 29.7196C19.0294 30.0947 19.4449 30.6134 19.6947 31.2153C19.9444 31.8172 20.0182 32.4777 19.9074 33.1199C19.8667 33.4463 19.9542 33.7758 20.1516 34.039C20.349 34.3022 20.6408 34.4785 20.9656 34.5308H21.1349C21.4353 34.5332 21.7261 34.4254 21.9523 34.2278C22.1785 34.0302 22.3244 33.7565 22.3624 33.4585C22.5519 32.0466 22.2797 30.6113 21.5864 29.3669C22.0641 29.6489 22.4851 30.0173 22.828 30.4533C22.9434 30.6062 23.0926 30.7304 23.2639 30.816C23.4352 30.9017 23.6241 30.9466 23.8156 30.9471C24.0904 30.9471 24.3577 30.858 24.5775 30.6931C24.8398 30.4918 25.012 30.1952 25.0569 29.8677C25.1018 29.5401 25.0158 29.2081 24.8174 28.9436C23.9444 27.8176 22.7404 26.9936 21.3748 26.5874C21.9116 26.4678 22.4641 26.4344 23.0114 26.4886C23.1735 26.5109 23.3384 26.501 23.4967 26.4595C23.655 26.418 23.8036 26.3457 23.934 26.2468C24.0643 26.1479 24.1739 26.0242 24.2565 25.883C24.3391 25.7417 24.393 25.5855 24.4153 25.4234C24.4375 25.2613 24.4276 25.0964 24.3861 24.9381C24.3446 24.7798 24.2723 24.6312 24.1734 24.5009C24.0745 24.3705 23.9509 24.2609 23.8096 24.1783C23.6683 24.0957 23.5122 24.0418 23.35 24.0196C21.8265 23.816 20.2797 24.1503 18.9762 24.9649C18.2188 23.6294 17.0223 22.5974 15.59 22.0443C15.2813 21.9264 14.9384 21.936 14.6368 22.0709C14.3352 22.2059 14.0995 22.4551 13.9816 22.7638C13.8637 23.0726 13.8733 23.4154 14.0083 23.7171C14.1432 24.0187 14.3925 24.2544 14.7012 24.3723C15.5115 24.6817 16.203 25.2399 16.6764 25.9666C15.8996 25.7763 15.0915 25.7508 14.3041 25.8917C13.5168 26.0327 12.7677 26.3369 12.1051 26.7849C11.8841 26.9902 11.7443 27.2682 11.7114 27.5681C11.6785 27.8679 11.7547 28.1696 11.9259 28.4179C12.0972 28.6663 12.3521 28.8446 12.6441 28.9204C12.9361 28.9962 13.2456 28.9644 13.516 28.8307C13.913 28.5625 14.3667 28.3898 14.8416 28.3262C15.3164 28.2625 15.7996 28.3097 16.2532 28.4639C13.0363 32.485 12.8811 38.0581 13.2903 41.9381C12.6949 42.2654 12.0223 42.4262 11.3432 42.4037H11.2586C9.49494 38.0722 4.33102 22.2418 11.6254 12.0269C16.5212 13.0709 16.62 18.898 16.62 19.1519C16.6237 19.4838 16.7572 19.8011 16.9919 20.0358C17.2266 20.2705 17.5438 20.404 17.8757 20.4076C18.04 20.4076 18.2026 20.3751 18.3541 20.3118C18.5057 20.2485 18.6432 20.1558 18.7587 20.039C18.8742 19.9222 18.9653 19.7837 19.0269 19.6314C19.0884 19.4791 19.1192 19.3162 19.1173 19.1519C19.1173 16.697 18.0591 12.3796 14.419 10.4043C17.8616 9.69886 20.8527 12.5912 21.0079 12.7464C21.2418 12.9803 21.559 13.1117 21.8897 13.1117C22.2205 13.1117 22.5377 12.9803 22.7716 12.7464C23.0054 12.5125 23.1368 12.1953 23.1368 11.8646C23.1368 11.5339 23.0054 11.2167 22.7716 10.9828C21.0361 9.24737 17.2267 6.94759 13.2621 8.16097C15.195 5.22629 19.3572 5.15574 19.5688 5.15574C19.8981 5.15574 20.2139 5.02493 20.4467 4.79209C20.6796 4.55924 20.8104 4.24344 20.8104 3.91414C20.8104 3.58485 20.6796 3.26905 20.4467 3.0362C20.2139 2.80336 19.8981 2.67255 19.5688 2.67255C18.0635 2.6595 16.5728 2.96733 15.1958 3.57553C13.8188 4.18374 12.5872 5.07836 11.5831 6.19981C10.8478 4.87383 9.83826 3.71984 8.6218 2.81479C7.40534 1.90975 6.0099 1.27444 4.52855 0.951242C4.21708 0.90872 3.901 0.984568 3.64274 1.1638C3.38449 1.34303 3.20286 1.6126 3.13373 1.91926C3.06459 2.22592 3.113 2.54735 3.26937 2.82005C3.42574 3.09275 3.67871 3.29688 3.97829 3.39211C4.20404 3.39211 8.84592 4.56316 9.70657 8.47137C8.1311 7.88534 6.42395 7.74784 4.77499 8.07414C3.12603 8.40044 1.59991 9.17777 0.366373 10.3197C0.25034 10.4339 0.158191 10.57 0.0952922 10.7202C0.0323928 10.8704 0 11.0316 0 11.1944C0 11.3572 0.0323928 11.5184 0.0952922 11.6686C0.158191 11.8188 0.25034 11.955 0.366373 12.0692C0.480871 12.1945 0.620402 12.2945 0.775944 12.3625C0.931487 12.4306 1.09958 12.4652 1.26935 12.4642C1.58312 12.471 1.88705 12.3545 2.1159 12.1397C3.07774 11.2659 4.27469 10.6932 5.55863 10.4926C6.84258 10.292 8.15717 10.4722 9.33973 11.011C2.62382 20.8873 5.93945 34.686 8.11225 41.1338C7.01635 40.3723 5.70755 39.9772 4.37335 40.0051C4.19822 39.9865 4.02113 40.0049 3.85359 40.0591C3.68604 40.1134 3.53177 40.2023 3.40082 40.32C3.26986 40.4378 3.16514 40.5818 3.09345 40.7426C3.02177 40.9035 2.98472 41.0777 2.98472 41.2538C2.98472 41.4299 3.02177 41.604 3.09345 41.7649C3.16514 41.9258 3.26986 42.0697 3.40082 42.1875C3.53177 42.3053 3.68604 42.3941 3.85359 42.4484C4.02113 42.5027 4.19822 42.5211 4.37335 42.5024C5.40459 42.4814 6.40803 42.8376 7.19516 43.5042C7.8787 44.0382 8.653 44.4444 9.48083 44.7034C10.1164 44.8964 10.7777 44.9916 11.442 44.9856H11.5831C12.3302 44.99 13.0716 44.8561 13.77 44.5906C14.4615 44.329 15.1087 43.9625 15.6888 43.5042L16.0556 43.2502C16.7655 42.7297 17.6312 42.466 18.5106 42.5024C19.5419 42.4814 20.5453 42.8376 21.3324 43.5042C22.5277 44.4775 24.0237 45.0061 25.5652 44.9997C27.1076 45.012 28.6055 44.4828 29.7979 43.5042C30.585 42.8376 31.5884 42.4814 32.6197 42.5024H33.1276C33.9697 42.591 34.7659 42.9301 35.4133 43.4759C36.6176 44.4304 38.1093 44.9498 39.646 44.9498C41.1827 44.9498 42.6743 44.4304 43.8787 43.4759C44.6658 42.8094 45.6693 42.4531 46.7005 42.4742C47.0088 42.4414 47.294 42.2957 47.5013 42.0652C47.7086 41.8346 47.8233 41.5356 47.8233 41.2255C47.8233 40.9155 47.7086 40.6165 47.5013 40.3859C47.294 40.1554 47.0088 40.0097 46.7005 39.9769V40.0051ZM29.4028 30.1993C30.0907 28.5075 31.3593 27.1164 32.9808 26.2759C34.6022 25.4355 36.4702 25.2007 38.2492 25.6139C38.6536 25.7157 39.0497 25.8478 39.4344 26.0089C40.9341 26.6039 42.2011 27.668 43.0463 29.0424C43.9001 30.4026 44.3048 31.9968 44.2032 33.5996L38.0093 32.1887L35.5826 31.6243L29.4028 30.1993Z" fill="#003366"/>
<path d="M32.9865 9.45901H35.3427C35.4356 9.83136 35.583 10.1879 35.7801 10.5172L34.1153 12.1821C33.9994 12.2969 33.9074 12.4335 33.8444 12.5839C33.7814 12.7344 33.7486 12.8958 33.7479 13.0589C33.7473 13.222 33.7787 13.3836 33.8406 13.5346C33.9024 13.6855 33.9933 13.8228 34.1082 13.9386C34.2231 14.0544 34.3596 14.1465 34.5101 14.2095C34.6605 14.2725 34.8219 14.3053 34.985 14.306C35.1481 14.3066 35.3098 14.2751 35.4607 14.2133C35.6117 14.1515 35.749 14.0606 35.8648 13.9457L37.5296 12.2808C37.8642 12.4673 38.2193 12.6141 38.5878 12.7182V15.0744C38.6206 15.3827 38.7663 15.6679 38.9969 15.8752C39.2274 16.0825 39.5265 16.1972 39.8365 16.1972C40.1465 16.1972 40.4456 16.0825 40.6761 15.8752C40.9066 15.6679 41.0523 15.3827 41.0851 15.0744V12.6759C41.4537 12.5717 41.8088 12.4249 42.1433 12.2385L43.8082 13.9034C44.0406 14.1353 44.3546 14.267 44.6829 14.2702C45.0156 14.2677 45.3342 14.1362 45.5718 13.9034C45.8036 13.6684 45.9335 13.3516 45.9335 13.0215C45.9335 12.6915 45.8036 12.3747 45.5718 12.1397L43.9069 10.5172C44.0982 10.185 44.2452 9.82927 44.3443 9.45901H46.7005C47.0088 9.42619 47.2941 9.28049 47.5013 9.04996C47.7086 8.81944 47.8233 8.52038 47.8233 8.21035C47.8233 7.90033 47.7086 7.60127 47.5013 7.37074C47.2941 7.14022 47.0088 6.99452 46.7005 6.9617H44.3443C44.2459 6.59567 44.0988 6.2445 43.9069 5.91763L45.5718 4.21044C45.8036 3.97546 45.9335 3.65867 45.9335 3.32862C45.9335 2.99856 45.8036 2.68178 45.5718 2.4468C45.4564 2.33035 45.319 2.23791 45.1677 2.17482C45.0163 2.11174 44.854 2.07926 44.69 2.07926C44.526 2.07926 44.3637 2.11174 44.2123 2.17482C44.061 2.23791 43.9236 2.33035 43.8082 2.4468L42.1433 4.21044C41.8088 4.02399 41.4537 3.8772 41.0851 3.77306V1.38862C41.1038 1.2135 41.0854 1.03641 41.0311 0.868863C40.9769 0.701314 40.888 0.547052 40.7702 0.416095C40.6524 0.285139 40.5085 0.180417 40.3476 0.108731C40.1867 0.0370456 40.0126 0 39.8365 0C39.6604 0 39.4862 0.0370456 39.3253 0.108731C39.1645 0.180417 39.0205 0.285139 38.9027 0.416095C38.785 0.547052 38.6961 0.701314 38.6418 0.868863C38.5876 1.03641 38.5692 1.2135 38.5878 1.38862V3.71662C38.2229 3.81832 37.8722 3.96525 37.5437 4.154L35.8648 2.48913C35.7516 2.37135 35.6157 2.27764 35.4654 2.21363C35.3151 2.14963 35.1534 2.11663 34.99 2.11663C34.8266 2.11663 34.6649 2.14963 34.5146 2.21363C34.3643 2.27764 34.2285 2.37135 34.1153 2.48913C33.8928 2.72043 33.7685 3.02887 33.7685 3.34978C33.7685 3.67069 33.8928 3.97914 34.1153 4.21044L35.7801 5.8753C35.5855 6.20079 35.4382 6.55235 35.3427 6.91938H32.9865C32.8114 6.90073 32.6343 6.91914 32.4668 6.97339C32.2992 7.02765 32.145 7.11654 32.014 7.2343C31.883 7.35205 31.7783 7.49604 31.7066 7.6569C31.6349 7.81777 31.5979 7.99191 31.5979 8.16803C31.5979 8.34414 31.6349 8.51829 31.7066 8.67915C31.7783 8.84002 31.883 8.984 32.014 9.10176C32.145 9.21951 32.2992 9.30841 32.4668 9.36266C32.6343 9.41692 32.8114 9.43532 32.9865 9.41668V9.45901ZM38.2915 6.63719C38.7033 6.23136 39.2583 6.00386 39.8365 6.00386C40.4146 6.00386 40.9696 6.23136 41.3814 6.63719C41.781 7.04927 42.0037 7.60112 42.0022 8.17508C42.0026 8.46056 41.9467 8.74333 41.8378 9.0072C41.7289 9.27108 41.569 9.51091 41.3673 9.71297C40.9581 10.1203 40.4068 10.353 39.8294 10.362C39.2527 10.3501 38.7024 10.1179 38.2915 9.71297C38.0899 9.51091 37.93 9.27108 37.821 9.0072C37.7121 8.74333 37.6562 8.46056 37.6566 8.17508C37.6555 7.88949 37.711 7.6065 37.82 7.34251C37.9289 7.07853 38.0892 6.83879 38.2915 6.63719Z" fill="#003366"/>
</svg>
