<svg xmlns="http://www.w3.org/2000/svg" xmlns:xlink="http://www.w3.org/1999/xlink" width="500" zoomAndPan="magnify" viewBox="0 0 375 374.999991" height="500" preserveAspectRatio="xMidYMid meet" version="1.0"><defs><clipPath id="2f9abcad88"><path d="M 14.742188 81.332031 L 360.492188 81.332031 L 360.492188 293.582031 L 14.742188 293.582031 Z M 14.742188 81.332031 " clip-rule="nonzero"/></clipPath></defs><rect x="-37.5" width="450" fill="#ffffff" y="-37.499999" height="449.999989" fill-opacity="1"/><rect x="-37.5" width="450" fill="#ffffff" y="-37.499999" height="449.999989" fill-opacity="1"/><path fill="#003366" d="M 188.9375 291.921875 L 97.730469 291.921875 C 95.617188 291.921875 93.90625 289.914062 93.90625 287.433594 L 93.90625 142.015625 C 93.90625 139.539062 95.617188 137.53125 97.730469 137.53125 L 188.9375 137.53125 C 191.046875 137.53125 192.757812 139.539062 192.757812 142.015625 L 192.757812 287.433594 C 192.757812 289.914062 191.046875 291.921875 188.9375 291.921875 Z M 188.9375 291.921875 " fill-opacity="1" fill-rule="nonzero"/><g clip-path="url(#2f9abcad88)"><path fill="#cccccc" d="M 357.703125 293.589844 L 220.144531 293.589844 C 218.589844 293.589844 217.324219 292.328125 217.324219 290.769531 L 217.324219 271.34375 L 146.199219 271.34375 C 144.644531 271.34375 143.378906 270.082031 143.378906 268.523438 L 143.378906 186.5 L 66.992188 222.8125 L 66.992188 289.941406 C 66.992188 291.496094 65.726562 292.757812 64.171875 292.757812 L 17.5625 292.757812 C 16.003906 292.757812 14.742188 291.496094 14.742188 289.941406 C 14.742188 288.386719 16.003906 287.125 17.5625 287.125 L 61.351562 287.125 L 61.351562 221.035156 C 61.351562 219.949219 61.976562 218.957031 62.957031 218.492188 L 143.378906 180.257812 L 143.378906 84.152344 C 143.378906 82.597656 144.644531 81.335938 146.199219 81.335938 L 218.910156 81.335938 C 220.46875 81.335938 221.730469 82.597656 221.730469 84.152344 L 221.730469 147.472656 C 221.730469 148.558594 221.105469 149.550781 220.121094 150.015625 L 149.023438 183.816406 L 149.023438 265.707031 L 217.324219 265.707031 L 217.324219 163.132812 C 217.324219 162.109375 217.882812 161.164062 218.777344 160.667969 C 219.675781 160.171875 220.769531 160.199219 221.640625 160.742188 L 292.179688 204.675781 C 293.003906 205.191406 293.507812 206.09375 293.507812 207.066406 L 293.507812 268.523438 C 293.507812 270.082031 292.246094 271.34375 290.6875 271.34375 L 222.96875 271.34375 L 222.96875 287.953125 L 357.703125 287.953125 C 359.257812 287.953125 360.523438 289.214844 360.523438 290.769531 C 360.523438 292.328125 359.257812 293.589844 357.703125 293.589844 Z M 222.96875 265.707031 L 287.867188 265.707031 L 287.867188 208.632812 L 222.96875 168.210938 Z M 149.023438 86.96875 L 149.023438 177.574219 L 216.089844 145.691406 L 216.089844 86.96875 Z M 149.023438 86.96875 " fill-opacity="1" fill-rule="nonzero"/></g></svg>